<?xml version="1.0" encoding="UTF-8"?>
<!DOCTYPE score-partwise PUBLIC "-//Recordare//DTD MusicXML 2.0 Partwise//EN" "http://www.musicxml.org/dtds/partwise.dtd">
<score-partwise version="2.0">
<work>
<work-title>
La La Land
</work-title>
</work>
<identification>
<creator type="composer"/>
<creator type="lyricist"/>
<rights/>
<encoding>
<software>
Noteflight version 0.4
</software>
<encoding-date>
2020-01-28
</encoding-date>
<supports attribute="new-system" element="print" type="no" value="no">
<supports attribute="new-page" element="print" type="no" value="no"/>
</encoding>
</identification>
<defaults>
<scaling>
<millimeters>
2.469444446
</millimeters>
<tenths>
10
</tenths>
</scaling>
<page-layout>
<page-height>
1131.4285714285716
</page-height>
<page-width>
874.2857142857143
</page-width>
<page-margins type="both">
<left-margin>
73.92857142857143
</left-margin>
<right-margin>71.42857142857143</right-margin><top-margin>82.85714285714286</top-margin><bottom-margin>68.57142857142857</bottom-margin></page-margins>
<page-layout><system-layout><system-margins>
<left-margin>73.92857142857143</left-margin><right-margin>45.714285714285715</right-margin>
</system-margins><system-distance>107.5</system-distance>
<top-system-distance>153.21428571428572</top-system-distance></system-layout><staff-layout><staff-distance>55</staff-distance></staff-layout></defaults>
<credit page="1"><credit-type>title</credit-type><credit-words font-size="24" default-x="437.14285714285717" default-y="1021.4285714285716" justify="right" valign="top">La La Land</credit-words></credit><part-list><score-part id="P1"><part-name>Piano</part-name><part-abbreviation>Pno.</part-abbreviation><score-instrument id="P1I1"><instrument-name>Piano</instrument-name><instrument-sound>keyboard.piano.grand</instrument-sound></score-instrument><midi-instrument id="P1I1"><midi-channel>1</midi-channel><midi-program>1</midi-program></midi-instrument></score-part></part-list><part id="P1"><measure number="1"><direction placement="above"><direction-type><metronome><beat-unit>quarter</beat-unit><per-minute>120</per-minute></metronome></direction-type><sound tempo="120"/></direction><direction placement="below"><direction-type><dynamics placement="below"><pp/></dynamics></direction-type></direction><note><pitch><step>C</step><alter>1</alter><octave>4</octave></pitch><duration>32</duration><voice>1</voice><type>eighth</type><staff>1</staff><beam number="1">begin</beam></note><note><pitch><step>F</step><alter>1</alter><octave>4</octave></pitch><duration>32</duration><voice>1</voice><type>eighth</type><staff>1</staff><beam number="1">end</beam></note><note><pitch><step>G</step><alter>1</alter><octave>4</octave></pitch><duration>32</duration><voice>1</voice><type>eighth</type><accidental>sharp</accidental><staff>1</staff><beam number="1">begin</beam></note><note><pitch><step>A</step><octave>4</octave></pitch><duration>32</duration><voice>1</voice><type>eighth</type><staff>1</staff><beam number="1">end</beam></note><note><pitch><step>G</step><alter>1</alter><octave>4</octave></pitch><duration>32</duration><voice>1</voice><type>eighth</type><staff>1</staff><beam number="1">begin</beam></note><note><pitch><step>F</step><alter>1</alter><octave>4</octave></pitch><duration>32</duration><voice>1</voice><type>eighth</type><staff>1</staff><beam number="1">end</beam></note><backup><duration>192</duration></backup><attributes><divisions>64</divisions><key><fifths>2</fifths><mode>major</mode></key><time print-object="yes"><beats>3</beats><beat-type>4</beat-type></time><staves>2</staves><clef number="1"><sign>G</sign><line>2</line></clef><clef number="2"><sign>F</sign><line>4</line></clef></attributes><note><rest/><duration>192</duration><voice>3</voice><type>whole</type><staff>2</staff></note></measure><measure number="2"><note><pitch><step>D</step><octave>4</octave></pitch><duration>192</duration><voice>1</voice><type>half</type><dot/><staff>1</staff></note><backup><duration>192</duration></backup><attributes/><note><rest/><duration>192</duration><voice>3</voice><type>whole</type><staff>2</staff></note></measure><measure number="3"><note><pitch><step>D</step><octave>4</octave></pitch><duration>32</duration><voice>1</voice><type>eighth</type><staff>1</staff><beam number="1">begin</beam></note><note><pitch><step>F</step><alter>1</alter><octave>4</octave></pitch><duration>32</duration><voice>1</voice><type>eighth</type><staff>1</staff><beam number="1">end</beam></note><note><pitch><step>G</step><alter>1</alter><octave>4</octave></pitch><duration>32</duration><voice>1</voice><type>eighth</type><accidental>sharp</accidental><staff>1</staff><beam number="1">begin</beam></note><note><pitch><step>A</step><octave>4</octave></pitch><duration>32</duration><voice>1</voice><type>eighth</type><staff>1</staff><beam number="1">end</beam></note><note><pitch><step>G</step><alter>1</alter><octave>4</octave></pitch><duration>32</duration><voice>1</voice><type>eighth</type><staff>1</staff><beam number="1">begin</beam></note><note><pitch><step>F</step><alter>1</alter><octave>4</octave></pitch><duration>32</duration><voice>1</voice><type>eighth</type><staff>1</staff><beam number="1">end</beam></note><backup><duration>192</duration></backup><attributes/><note><rest/><duration>192</duration><voice>3</voice><type>whole</type><staff>2</staff></note></measure><measure number="4"><note><pitch><step>C</step><alter>1</alter><octave>4</octave></pitch><duration>192</duration><voice>1</voice><type>half</type><dot/><staff>1</staff></note><backup><duration>192</duration></backup><attributes/><note><rest/><duration>192</duration><voice>3</voice><type>whole</type><staff>2</staff></note></measure><measure number="5"><direction placement="below"><direction-type><dynamics placement="below"><mp/></dynamics></direction-type></direction><note><pitch><step>C</step><alter>1</alter><octave>4</octave></pitch><duration>32</duration><voice>1</voice><type>eighth</type><staff>1</staff><beam number="1">begin</beam></note><note><pitch><step>F</step><alter>1</alter><octave>4</octave></pitch><duration>32</duration><voice>1</voice><type>eighth</type><staff>1</staff><beam number="1">end</beam></note><note><pitch><step>G</step><alter>1</alter><octave>4</octave></pitch><duration>32</duration><voice>1</voice><type>eighth</type><accidental>sharp</accidental><staff>1</staff><beam number="1">begin</beam></note><note><pitch><step>A</step><octave>4</octave></pitch><duration>32</duration><voice>1</voice><type>eighth</type><staff>1</staff><beam number="1">end</beam></note><note><pitch><step>G</step><alter>1</alter><octave>4</octave></pitch><duration>32</duration><voice>1</voice><type>eighth</type><staff>1</staff><beam number="1">begin</beam></note><note><pitch><step>F</step><alter>1</alter><octave>4</octave></pitch><duration>32</duration><voice>1</voice><type>eighth</type><staff>1</staff><beam number="1">end</beam></note><backup><duration>192</duration></backup><attributes/><note><pitch><step>A</step><octave>2</octave></pitch><duration>64</duration><voice>3</voice><type>quarter</type><staff>2</staff></note><note><pitch><step>E</step><octave>3</octave></pitch><duration>128</duration><voice>3</voice><type>half</type><staff>2</staff></note></measure><measure number="6"><note><pitch><step>D</step><octave>4</octave></pitch><duration>64</duration><voice>1</voice><type>quarter</type><staff>1</staff></note><note><pitch><step>B</step><octave>4</octave></pitch><duration>128</duration><voice>1</voice><type>half</type><staff>1</staff></note><backup><duration>192</duration></backup><attributes/><note><pitch><step>B</step><octave>2</octave></pitch><duration>64</duration><voice>3</voice><type>quarter</type><staff>2</staff></note><note><pitch><step>F</step><alter>1</alter><octave>3</octave></pitch><duration>64</duration><voice>3</voice><type>quarter</type><staff>2</staff></note><note><chord/><pitch><step>A</step><octave>3</octave></pitch><duration>64</duration><voice>3</voice><type>quarter</type><staff>2</staff></note><note><pitch><step>B</step><octave>3</octave></pitch><duration>64</duration><voice>3</voice><type>quarter</type><staff>2</staff></note></measure><measure number="7"><note><pitch><step>B</step><octave>4</octave></pitch><duration>32</duration><voice>1</voice><type>eighth</type><staff>1</staff><beam number="1">begin</beam></note><note><pitch><step>A</step><octave>4</octave></pitch><duration>32</duration><voice>1</voice><type>eighth</type><staff>1</staff><beam number="1">end</beam></note><note><pitch><step>G</step><alter>1</alter><octave>4</octave></pitch><duration>32</duration><voice>1</voice><type>eighth</type><accidental>sharp</accidental><staff>1</staff><beam number="1">begin</beam></note><note><pitch><step>A</step><octave>4</octave></pitch><duration>32</duration><voice>1</voice><type>eighth</type><staff>1</staff><beam number="1">end</beam></note><note><pitch><step>G</step><alter>1</alter><octave>4</octave></pitch><duration>32</duration><voice>1</voice><type>eighth</type><staff>1</staff><beam number="1">begin</beam></note><note><pitch><step>F</step><alter>1</alter><octave>4</octave></pitch><duration>32</duration><voice>1</voice><type>eighth</type><staff>1</staff><beam number="1">end</beam></note><backup><duration>192</duration></backup><attributes/><note><pitch><step>E</step><octave>3</octave></pitch><duration>64</duration><voice>3</voice><type>quarter</type><staff>2</staff></note><note><pitch><step>B</step><octave>3</octave></pitch><duration>64</duration><voice>3</voice><type>quarter</type><staff>2</staff></note><note><pitch><step>B</step><octave>3</octave></pitch><duration>64</duration><voice>3</voice><type>quarter</type><staff>2</staff></note></measure><measure number="8"><note><pitch><step>C</step><alter>1</alter><octave>4</octave></pitch><duration>64</duration><voice>1</voice><type>quarter</type><staff>1</staff></note><note><pitch><step>E</step><octave>4</octave></pitch><duration>32</duration><voice>1</voice><type>eighth</type><staff>1</staff><beam number="1">begin</beam></note><note><pitch><step>F</step><alter>1</alter><octave>4</octave></pitch><duration>32</duration><voice>1</voice><type>eighth</type><staff>1</staff><beam number="1">end</beam></note><note><pitch><step>G</step><alter>1</alter><octave>4</octave></pitch><duration>32</duration><voice>1</voice><type>eighth</type><accidental>sharp</accidental><staff>1</staff><beam number="1">begin</beam></note><note><pitch><step>A</step><octave>4</octave></pitch><duration>32</duration><voice>1</voice><type>eighth</type><staff>1</staff><beam number="1">end</beam></note><backup><duration>192</duration></backup><attributes/><note><pitch><step>A</step><octave>2</octave></pitch><duration>64</duration><voice>3</voice><type>quarter</type><staff>2</staff></note><note><pitch><step>E</step><octave>3</octave></pitch><duration>32</duration><voice>3</voice><type>eighth</type><staff>2</staff><beam number="1">begin</beam></note><note><pitch><step>F</step><alter>1</alter><octave>3</octave></pitch><duration>32</duration><voice>3</voice><type>eighth</type><staff>2</staff><beam number="1">end</beam></note><note><pitch><step>G</step><alter>1</alter><octave>3</octave></pitch><duration>32</duration><voice>3</voice><type>eighth</type><accidental>sharp</accidental><staff>2</staff><beam number="1">begin</beam></note><note><pitch><step>A</step><octave>3</octave></pitch><duration>32</duration><voice>3</voice><type>eighth</type><staff>2</staff><beam number="1">end</beam></note></measure><measure number="9"><note><pitch><step>D</step><octave>5</octave></pitch><duration>32</duration><voice>1</voice><type>eighth</type><staff>1</staff><beam number="1">begin</beam></note><note><pitch><step>C</step><alter>1</alter><octave>5</octave></pitch><duration>32</duration><voice>1</voice><type>eighth</type><staff>1</staff><beam number="1">end</beam></note><note><pitch><step>B</step><octave>4</octave></pitch><duration>32</duration><voice>1</voice><type>eighth</type><staff>1</staff><beam number="1">begin</beam></note><note><pitch><step>C</step><alter>1</alter><octave>5</octave></pitch><duration>32</duration><voice>1</voice><type>eighth</type><staff>1</staff><beam number="1">end</beam></note><note><pitch><step>B</step><octave>4</octave></pitch><duration>32</duration><voice>1</voice><type>eighth</type><staff>1</staff><beam number="1">begin</beam></note><note><pitch><step>A</step><octave>4</octave></pitch><duration>32</duration><voice>1</voice><type>eighth</type><staff>1</staff><beam number="1">end</beam></note><backup><duration>192</duration></backup><attributes/><note><pitch><step>B</step><octave>2</octave></pitch><duration>64</duration><voice>3</voice><type>quarter</type><staff>2</staff></note><note><chord/><pitch><step>A</step><octave>3</octave></pitch><duration>64</duration><voice>3</voice><type>quarter</type><staff>2</staff></note><note><pitch><step>B</step><octave>3</octave></pitch><duration>64</duration><voice>3</voice><type>quarter</type><staff>2</staff></note><note><chord/><pitch><step>D</step><octave>4</octave></pitch><duration>64</duration><voice>3</voice><type>quarter</type><staff>2</staff></note><note><pitch><step>B</step><octave>3</octave></pitch><duration>64</duration><voice>3</voice><type>quarter</type><staff>2</staff></note><note><chord/><pitch><step>D</step><octave>4</octave></pitch><duration>64</duration><voice>3</voice><type>quarter</type><staff>2</staff></note></measure><measure number="10"><note><pitch><step>F</step><alter>1</alter><octave>4</octave></pitch><duration>128</duration><voice>1</voice><type>half</type><staff>1</staff></note><note><pitch><step>G</step><alter>1</alter><octave>4</octave></pitch><duration>64</duration><voice>1</voice><type>quarter</type><accidental>sharp</accidental><staff>1</staff></note><backup><duration>192</duration></backup><attributes/><note><pitch><step>E</step><octave>3</octave></pitch><duration>64</duration><voice>3</voice><type>quarter</type><staff>2</staff></note><note><pitch><step>A</step><octave>3</octave></pitch><duration>64</duration><voice>3</voice><type>quarter</type><staff>2</staff></note><note><chord/><pitch><step>D</step><octave>4</octave></pitch><duration>64</duration><voice>3</voice><type>quarter</type><staff>2</staff></note><note><pitch><step>B</step><octave>3</octave></pitch><duration>64</duration><voice>3</voice><type>quarter</type><staff>2</staff></note></measure><measure number="11"><note><pitch><step>C</step><alter>1</alter><octave>5</octave></pitch><duration>32</duration><voice>1</voice><type>eighth</type><staff>1</staff><beam number="1">begin</beam></note><note><pitch><step>B</step><octave>4</octave></pitch><duration>32</duration><voice>1</voice><type>eighth</type><staff>1</staff><beam number="1">end</beam></note><note><pitch><step>A</step><octave>4</octave></pitch><duration>32</duration><voice>1</voice><type>eighth</type><staff>1</staff><beam number="1">begin</beam></note><note><pitch><step>B</step><octave>4</octave></pitch><duration>32</duration><voice>1</voice><type>eighth</type><staff>1</staff><beam number="1">end</beam></note><note><pitch><step>A</step><octave>4</octave></pitch><duration>32</duration><voice>1</voice><type>eighth</type><staff>1</staff><beam number="1">begin</beam></note><note><pitch><step>G</step><alter>1</alter><octave>4</octave></pitch><duration>32</duration><voice>1</voice><type>eighth</type><accidental>sharp</accidental><staff>1</staff><beam number="1">end</beam></note><backup><duration>192</duration></backup><attributes/><note><pitch><step>A</step><octave>2</octave></pitch><duration>64</duration><voice>3</voice><type>quarter</type><staff>2</staff></note><note><pitch><step>E</step><octave>3</octave></pitch><duration>64</duration><voice>3</voice><type>quarter</type><staff>2</staff></note><note><chord/><pitch><step>A</step><octave>3</octave></pitch><duration>64</duration><voice>3</voice><type>quarter</type><staff>2</staff></note><note><chord/><pitch><step>C</step><alter>1</alter><octave>4</octave></pitch><duration>64</duration><voice>3</voice><type>quarter</type><staff>2</staff></note><note><pitch><step>E</step><octave>3</octave></pitch><duration>64</duration><voice>3</voice><type>quarter</type><staff>2</staff></note><note><chord/><pitch><step>A</step><octave>3</octave></pitch><duration>64</duration><voice>3</voice><type>quarter</type><staff>2</staff></note><note><chord/><pitch><step>C</step><alter>1</alter><octave>4</octave></pitch><duration>64</duration><voice>3</voice><type>quarter</type><staff>2</staff></note></measure><measure number="12"><note><pitch><step>F</step><alter>1</alter><octave>4</octave></pitch><duration>192</duration><voice>1</voice><type>half</type><dot/><staff>1</staff></note><backup><duration>192</duration></backup><attributes/><note><pitch><step>D</step><octave>3</octave></pitch><duration>64</duration><voice>3</voice><type>quarter</type><staff>2</staff></note><note><pitch><step>F</step><alter>1</alter><octave>3</octave></pitch><duration>64</duration><voice>3</voice><type>quarter</type><staff>2</staff></note><note><chord/><pitch><step>A</step><octave>3</octave></pitch><duration>64</duration><voice>3</voice><type>quarter</type><staff>2</staff></note><note><chord/><pitch><step>C</step><alter>1</alter><octave>4</octave></pitch><duration>64</duration><voice>3</voice><type>quarter</type><staff>2</staff></note><note><pitch><step>B</step><octave>3</octave></pitch><duration>64</duration><voice>3</voice><type>quarter</type><staff>2</staff></note></measure><measure number="13"><note><pitch><step>D</step><octave>5</octave></pitch><duration>32</duration><voice>1</voice><type>eighth</type><staff>1</staff><beam number="1">begin</beam></note><note><pitch><step>C</step><alter>1</alter><octave>5</octave></pitch><duration>32</duration><voice>1</voice><type>eighth</type><staff>1</staff><beam number="1">end</beam></note><note><pitch><step>B</step><octave>4</octave></pitch><duration>32</duration><voice>1</voice><type>eighth</type><staff>1</staff><beam number="1">begin</beam></note><note><pitch><step>C</step><alter>1</alter><octave>5</octave></pitch><duration>32</duration><voice>1</voice><type>eighth</type><staff>1</staff><beam number="1">end</beam></note><note><pitch><step>B</step><octave>4</octave></pitch><duration>32</duration><voice>1</voice><type>eighth</type><staff>1</staff><beam number="1">begin</beam></note><note><pitch><step>A</step><octave>4</octave></pitch><duration>32</duration><voice>1</voice><type>eighth</type><staff>1</staff><beam number="1">end</beam></note><backup><duration>192</duration></backup><attributes/><note><pitch><step>B</step><octave>2</octave></pitch><duration>64</duration><voice>3</voice><type>quarter</type><staff>2</staff></note><note><pitch><step>F</step><alter>1</alter><octave>3</octave></pitch><duration>64</duration><voice>3</voice><type>quarter</type><staff>2</staff></note><note><chord/><pitch><step>B</step><octave>3</octave></pitch><duration>64</duration><voice>3</voice><type>quarter</type><staff>2</staff></note><note><chord/><pitch><step>D</step><octave>4</octave></pitch><duration>64</duration><voice>3</voice><type>quarter</type><staff>2</staff></note><note><pitch><step>F</step><alter>1</alter><octave>3</octave></pitch><duration>64</duration><voice>3</voice><type>quarter</type><staff>2</staff></note><note><chord/><pitch><step>B</step><octave>3</octave></pitch><duration>64</duration><voice>3</voice><type>quarter</type><staff>2</staff></note><note><chord/><pitch><step>D</step><octave>4</octave></pitch><duration>64</duration><voice>3</voice><type>quarter</type><staff>2</staff></note></measure><measure number="14"><note><pitch><step>F</step><alter>1</alter><octave>4</octave></pitch><duration>128</duration><voice>1</voice><type>half</type><staff>1</staff></note><note><pitch><step>G</step><alter>1</alter><octave>4</octave></pitch><duration>64</duration><voice>1</voice><type>quarter</type><accidental>sharp</accidental><staff>1</staff></note><backup><duration>192</duration></backup><attributes/><note><pitch><step>E</step><octave>3</octave></pitch><duration>64</duration><voice>3</voice><type>quarter</type><staff>2</staff></note><note><pitch><step>A</step><octave>3</octave></pitch><duration>64</duration><voice>3</voice><type>quarter</type><staff>2</staff></note><note><chord/><pitch><step>D</step><octave>4</octave></pitch><duration>64</duration><voice>3</voice><type>quarter</type><staff>2</staff></note><note><pitch><step>B</step><octave>3</octave></pitch><duration>64</duration><voice>3</voice><type>quarter</type><staff>2</staff></note></measure><measure number="15"><note><pitch><step>C</step><alter>1</alter><octave>5</octave></pitch><duration>64</duration><voice>1</voice><type>quarter</type><staff>1</staff></note><note><rest/><duration>64</duration><voice>1</voice><type>quarter</type><staff>1</staff></note><note><rest/><duration>64</duration><voice>1</voice><type>quarter</type><staff>1</staff></note><backup><duration>192</duration></backup><attributes/><note><pitch><step>A</step><octave>2</octave></pitch><duration>64</duration><voice>3</voice><type>quarter</type><staff>2</staff></note><note><rest/><duration>64</duration><voice>3</voice><type>quarter</type><staff>2</staff></note><note><rest/><duration>64</duration><voice>3</voice><type>quarter</type><staff>2</staff></note><barline location="right"><bar-style>light-heavy</bar-style></barline></measure></part></score-partwise>
